<?xml version="1.0" encoding="iso-8859-1"?>
<!-- Generator: Adobe Illustrator 19.0.0, SVG Export Plug-In . SVG Version: 6.00 Build 0)  -->
<svg version="1.1" id="Layer_1" xmlns="http://www.w3.org/2000/svg" xmlns:xlink="http://www.w3.org/1999/xlink" x="0px" y="0px"
	 viewBox="0 0 512.038 512.038" style="enable-background:new 0 0 512.038 512.038;" xml:space="preserve">
<g transform="translate(1 1)">
	<path style="fill:#D0E8F9;" d="M76.653,296.521v155.307c0,16.213,13.653,29.867,29.867,29.867s29.867-13.653,29.867-29.867v-151.04
		L76.653,296.521L76.653,296.521z"/>
	<path style="fill:#0096E6;" d="M106.52,491.081c-21.333,0-38.4-17.067-38.4-38.4V287.988l76.8,5.12v159.573
		C144.92,473.161,127,491.081,106.52,491.081z M85.187,305.908v146.773c0,11.947,9.387,21.333,21.333,21.333
		s21.333-9.387,21.333-21.333V308.468L85.187,305.908z"/>
	<path style="fill:#D0E8F9;" d="M41.667,267.508h-15.36c-10.24,0-18.773-8.533-18.773-18.773v-47.787
		c0-10.24,8.533-18.773,18.773-18.773h15.36V267.508L41.667,267.508z"/>
	<path style="fill:#0096E6;" d="M50.2,276.041H26.307C10.947,276.041-1,264.095-1,248.735v-47.787
		c0-15.36,11.947-27.307,27.307-27.307H50.2V276.041z M26.307,190.708c-5.973,0-10.24,4.267-10.24,10.24v47.787
		c0,5.973,4.267,10.24,10.24,10.24h6.827v-68.267H26.307z"/>
	<path style="fill:#FFFFFF;" d="M179.053,303.348l-115.2-7.68c-12.8-0.853-22.187-11.093-22.187-23.893v-94.72
		c0-11.093,8.533-19.627,19.627-20.48l116.907-6.827v153.6H179.053z"/>
	<path style="fill:#0096E6;" d="M187.587,311.881l-123.733-7.68c-17.067-0.853-29.867-15.36-29.867-32.427v-94.72
		c0-15.36,11.947-28.16,27.307-29.013l126.293-7.68V311.881z M170.52,158.281l-108.373,6.827
		c-5.973,0.853-11.093,5.973-11.093,11.947v94.72c0,7.68,5.973,14.507,14.507,15.36l104.96,6.827V158.281z"/>
	<path style="fill:#FFFFFF;" d="M365.933,413.428L198.68,329.801c-11.947-5.973-19.627-18.773-19.627-31.573V154.015
		c0-12.8,6.827-25.6,18.773-31.573l167.253-89.6c23.893-12.8,52.907,4.267,52.907,30.72v317.44
		C417.987,408.308,389.827,425.375,365.933,413.428L365.933,413.428z"/>
	<path style="fill:#0096E6;" d="M382.147,426.228c-6.827,0-13.653-1.707-19.627-5.12l-167.253-83.627
		c-15.36-7.68-24.747-23.04-24.747-39.253V154.015c0-16.213,8.533-31.573,23.04-39.253l167.253-89.6
		c13.653-7.68,30.72-7.68,43.52,0.853c13.653,7.68,21.333,22.187,21.333,37.547v317.44c0,15.36-7.68,29.867-21.333,37.547
		C398.36,423.668,389.827,426.228,382.147,426.228z M382.147,37.108c-4.267,0-8.533,0.853-12.8,3.413L201.24,129.268
		c-8.533,5.12-14.507,13.653-14.507,23.893v144.213c0,10.24,5.973,19.627,15.36,23.893l167.253,83.627
		c8.533,4.267,18.773,3.413,26.453-0.853c7.68-5.12,12.8-13.653,12.8-23.04V63.561c0-9.387-5.12-18.773-12.8-23.04
		C391.533,37.961,386.413,37.108,382.147,37.108z"/>
	<path style="fill:#FFFFFF;" d="M425.667,182.175h-8.533v85.333h8.533c18.773,0,34.133-15.36,34.133-34.133v-17.067
		C459.8,197.535,444.44,182.175,425.667,182.175L425.667,182.175z"/>
	<g>
		<path style="fill:#0096E6;" d="M425.667,276.041H408.6v-102.4h17.067c23.893,0,42.667,18.773,42.667,42.667v17.067
			C468.333,257.268,449.56,276.041,425.667,276.041z M425.667,190.708v68.267c14.507,0,25.6-11.093,25.6-25.6v-17.067
			C451.267,201.801,440.173,190.708,425.667,190.708z"/>
		<path style="fill:#0096E6;" d="M102.253,446.708h-25.6c-5.12,0-8.533-3.413-8.533-8.533s3.413-8.533,8.533-8.533h25.6
			c5.12,0,8.533,3.413,8.533,8.533S106.52,446.708,102.253,446.708z M102.253,412.575h-25.6c-5.12,0-8.533-3.413-8.533-8.533
			s3.413-8.533,8.533-8.533h25.6c5.12,0,8.533,3.413,8.533,8.533S106.52,412.575,102.253,412.575z M102.253,378.441h-25.6
			c-5.12,0-8.533-3.413-8.533-8.533s3.413-8.533,8.533-8.533h25.6c5.12,0,8.533,3.413,8.533,8.533S106.52,378.441,102.253,378.441z
			 M102.253,344.308h-25.6c-5.12,0-8.533-3.413-8.533-8.533s3.413-8.533,8.533-8.533h25.6c5.12,0,8.533,3.413,8.533,8.533
			S106.52,344.308,102.253,344.308z M485.4,284.575c-1.707,0-3.413-0.853-5.12-1.707c-3.413-2.56-5.12-7.68-1.707-11.947
			c5.12-6.827,16.213-24.747,15.36-46.08c0-17.067-5.973-32.427-15.36-46.933c-2.56-4.267-1.707-9.387,1.707-11.947
			c4.267-2.56,9.387-1.707,11.947,1.707c11.947,17.067,17.92,35.84,18.773,56.32c0.853,26.453-12.8,48.64-18.773,56.32
			C490.52,283.721,487.96,284.575,485.4,284.575z"/>
	</g>
	<path style="fill:#D0E8F9;" d="M364.227,32.841l-15.36,8.533v364.373l16.213,8.533c23.893,11.947,52.053-5.12,52.053-31.573V63.561
		C417.133,37.108,388.12,20.041,364.227,32.841L364.227,32.841z"/>
	<g>
		<path style="fill:#0096E6;" d="M381.293,426.228c-6.827,0-13.653-1.707-19.627-5.12l-21.333-10.24V35.401l20.48-11.093
			c13.653-7.68,29.867-6.827,43.52,0.853c13.653,8.533,21.333,23.04,21.333,38.4v317.44c0,15.36-7.68,29.867-21.333,37.547
			C397.507,423.668,389.827,426.228,381.293,426.228z M357.4,399.775l11.947,5.973c8.533,4.267,18.773,3.413,26.453-0.853
			c7.68-5.12,12.8-13.653,12.8-23.04V63.561c0-9.387-5.12-17.92-12.8-23.04c-8.533-5.12-17.92-5.12-26.453-0.853L357.4,45.641
			V399.775z"/>
		<path style="fill:#0096E6;" d="M212.333,241.908c-5.12,0-8.533-3.413-8.533-8.533v-17.067c0-5.12,3.413-8.533,8.533-8.533
			c5.12,0,8.533,3.413,8.533,8.533v17.067C220.867,238.495,217.453,241.908,212.333,241.908z M212.333,199.241
			c-5.12,0-8.533-3.413-8.533-8.533v-18.773c0-12.8,6.827-23.893,17.92-29.867l38.4-18.773c4.267-1.707,9.387,0,11.093,4.267
			c1.707,4.267,0,9.387-4.267,11.093L229.4,157.428c-5.12,2.56-8.533,8.533-8.533,14.507v18.773
			C220.867,195.828,217.453,199.241,212.333,199.241z"/>
	</g>
</g>
<g>
</g>
<g>
</g>
<g>
</g>
<g>
</g>
<g>
</g>
<g>
</g>
<g>
</g>
<g>
</g>
<g>
</g>
<g>
</g>
<g>
</g>
<g>
</g>
<g>
</g>
<g>
</g>
<g>
</g>
</svg>
