<?xml version="1.0" encoding="iso-8859-1"?>
<!-- Generator: Adobe Illustrator 19.0.0, SVG Export Plug-In . SVG Version: 6.00 Build 0)  -->
<svg version="1.1" id="Layer_1" xmlns="http://www.w3.org/2000/svg" xmlns:xlink="http://www.w3.org/1999/xlink" x="0px" y="0px"
	 viewBox="0 0 511.756 511.756" style="enable-background:new 0 0 511.756 511.756;" xml:space="preserve">
<g transform="translate(1 1)">
	<path style="fill:#FFFFFF;" d="M417.28,362.276c-42.667,0-76.8-7.68-76.8-16.213v34.133c0,9.387,34.133,16.213,76.8,16.213
		s76.8-7.68,76.8-16.213v-34.133C494.08,354.596,459.947,362.276,417.28,362.276L417.28,362.276z"/>
	<path style="fill:#0096E6;" d="M417.28,404.942c-79.36,0-85.333-18.773-85.333-24.747v-34.133h17.067
		c0-1.707-0.853-2.56-0.853-2.56c3.413,3.413,28.16,10.24,69.12,10.24s65.707-6.827,69.12-10.24c0,0-0.853,0.853-0.853,2.56h17.067
		v34.133C502.613,386.169,496.64,404.942,417.28,404.942z M349.013,378.489c5.12,3.413,29.867,9.387,68.267,9.387
		s63.147-5.973,68.267-9.387v-16.213c-11.947,4.267-33.28,8.533-68.267,8.533s-56.32-3.413-68.267-8.533V378.489z"/>
	<path style="fill:#FFFFFF;" d="M340.48,346.062L340.48,346.062L340.48,346.062L340.48,346.062z"/>
	<path style="fill:#0096E6;" d="M349.013,346.062h-17.067H349.013z"/>
	<path style="fill:#FFFFFF;" d="M494.08,346.062L494.08,346.062L494.08,346.062L494.08,346.062z"/>
	<path style="fill:#0096E6;" d="M502.613,346.062h-17.067H502.613z"/>
	<path id="SVGCleanerId_0" style="fill:#FFFFFF;" d="M494.08,311.929c0,9.387-34.133,16.213-76.8,16.213s-76.8-7.68-76.8-16.213
		c0-9.387,34.133-26.453,76.8-26.453S494.08,302.542,494.08,311.929L494.08,311.929z"/>
	<path id="SVGCleanerId_1" style="fill:#0096E6;" d="M417.28,336.676c-79.36,0-85.333-18.773-85.333-24.747
		c0-17.067,42.667-34.987,85.333-34.987s85.333,17.92,85.333,34.987C502.613,317.902,496.64,336.676,417.28,336.676z
		 M351.573,311.076c8.533,3.413,30.72,8.533,65.707,8.533s58.027-5.12,65.707-8.533c-7.68-5.973-32.427-17.067-65.707-17.067
		S359.253,305.102,351.573,311.076z M485.547,313.636L485.547,313.636L485.547,313.636z"/>
	<path style="fill:#FFFFFF;" d="M417.28,328.142c-42.667,0-76.8-7.68-76.8-16.213v34.133c0,9.387,34.133,16.213,76.8,16.213
		s76.8-7.68,76.8-16.213v-34.133C494.08,320.462,459.947,328.142,417.28,328.142L417.28,328.142z"/>
	<path style="fill:#0096E6;" d="M417.28,370.809c-79.36,0-85.333-18.773-85.333-24.747v-34.133h17.067
		c0-1.707-0.853-2.56-0.853-2.56c3.413,3.413,28.16,10.24,69.12,10.24s65.707-6.827,69.12-10.24c0,0-0.853,0.853-0.853,2.56h17.067
		v34.133C502.613,352.036,496.64,370.809,417.28,370.809z M349.013,344.356c5.12,3.413,29.867,9.387,68.267,9.387
		s63.147-5.973,68.267-9.387v-16.213c-11.947,4.267-33.28,8.533-68.267,8.533s-56.32-3.413-68.267-8.533V344.356z"/>
	<path style="fill:#FFFFFF;" d="M340.48,311.929L340.48,311.929L340.48,311.929L340.48,311.929z"/>
	<path style="fill:#0096E6;" d="M349.013,311.929h-17.067H349.013z"/>
	<path style="fill:#FFFFFF;" d="M494.08,311.929L494.08,311.929L494.08,311.929L494.08,311.929z"/>
	<g>
		<path style="fill:#0096E6;" d="M502.613,311.929h-17.067H502.613z"/>
		<path style="fill:#0096E6;" d="M263.68,152.356h-102.4c-5.12,0-8.533-3.413-8.533-8.533c0-5.12,3.413-8.533,8.533-8.533h102.4
			c5.12,0,8.533,3.413,8.533,8.533C272.213,148.942,268.8,152.356,263.68,152.356z M263.68,126.756h-102.4
			c-5.12,0-8.533-3.413-8.533-8.533s3.413-8.533,8.533-8.533h102.4c5.12,0,8.533,3.413,8.533,8.533S268.8,126.756,263.68,126.756z"
			/>
	</g>
	<path style="fill:#FFFFFF;" d="M195.413,18.382c-17.92-14.507-40.107-12.8-58.027-6.827c-11.947,4.267-14.507,19.627-5.12,28.16
		c10.24,8.533,24.747,33.28,28.16,41.813c2.56,6.827,8.533,11.093,15.36,11.093h63.147c6.827,0,12.8-4.267,15.36-11.093
		c3.413-8.533,14.507-33.28,24.747-41.813s7.68-23.893-5.12-28.16c-17.92-5.973-39.253-7.68-58.027,6.827
		C210.773,23.502,202.24,23.502,195.413,18.382L195.413,18.382z"/>
	<g>
		<path style="fill:#0096E6;" d="M239.787,101.156H176.64c-10.24,0-19.627-6.827-23.04-17.067
			c-2.56-6.827-16.213-29.867-25.6-37.547c-6.827-5.973-10.24-15.36-8.533-23.893s7.68-15.36,16.213-18.773
			c25.6-8.533,48.64-5.973,65.707,8.533l0,0c3.413,2.56,7.68,2.56,10.24,0c17.067-13.653,40.107-17.067,65.707-8.533
			c8.533,2.56,14.507,9.387,16.213,18.773s-1.707,17.92-8.533,23.893c-7.68,6.827-18.773,28.16-22.187,37.547
			C259.413,94.329,250.027,101.156,239.787,101.156z M162.987,15.822c-6.827,0-14.507,1.707-22.187,4.267
			c-3.413,0.853-5.12,3.413-5.12,5.12c-0.853,2.56,0.853,5.973,2.56,7.68c11.093,9.387,27.307,34.987,30.72,45.227
			c1.707,4.267,4.267,5.973,7.68,5.973h63.147c3.413,0,5.973-1.707,6.827-5.12c2.56-5.973,13.653-34.133,26.453-45.227
			c2.56-1.707,3.413-5.12,2.56-7.68c0-1.707-1.707-4.267-5.12-5.973c-20.48-6.827-36.693-5.12-49.493,5.12
			c-8.533,7.68-21.333,7.68-30.72,0C182.613,19.236,173.227,15.822,162.987,15.822z"/>
		<path style="fill:#0096E6;" d="M290.133,162.596c-10.24,0-19.627-3.413-27.307-10.24c-4.267-0.853-7.68-4.267-7.68-8.533v-25.6
			c0-5.12,3.413-8.533,8.533-8.533c5.12,0,8.533,3.413,8.533,8.533v19.627c9.387,9.387,26.453,9.387,35.84,0
			c3.413-3.413,8.533-3.413,11.947,0c3.413,3.413,3.413,8.533,0,11.947C312.32,158.329,301.227,162.596,290.133,162.596z"/>
	</g>
	<g>
		<path id="SVGCleanerId_0_1_" style="fill:#FFFFFF;" d="M494.08,311.929c0,9.387-34.133,16.213-76.8,16.213s-76.8-7.68-76.8-16.213
			c0-9.387,34.133-26.453,76.8-26.453S494.08,302.542,494.08,311.929L494.08,311.929z"/>
	</g>
	<g>
		<path id="SVGCleanerId_1_1_" style="fill:#0096E6;" d="M417.28,336.676c-79.36,0-85.333-18.773-85.333-24.747
			c0-17.067,42.667-34.987,85.333-34.987s85.333,17.92,85.333,34.987C502.613,317.902,496.64,336.676,417.28,336.676z
			 M351.573,311.076c8.533,3.413,30.72,8.533,65.707,8.533s58.027-5.12,65.707-8.533c-7.68-5.973-32.427-17.067-65.707-17.067
			S359.253,305.102,351.573,311.076z M485.547,313.636L485.547,313.636L485.547,313.636z"/>
	</g>
	<path style="fill:#FFFFFF;" d="M417.28,464.676c-17.067,0-33.28-0.853-46.08-3.413c-4.267,11.947-11.093,22.187-21.333,29.013
		c12.8,5.12,38.4,8.533,66.56,8.533c42.667,0,76.8-7.68,76.8-16.213v-34.133C494.08,456.996,459.947,464.676,417.28,464.676
		L417.28,464.676z"/>
	<path style="fill:#0096E6;" d="M417.28,507.342c-29.013,0-55.467-3.413-69.973-8.533l-14.507-5.12l12.8-9.387
		c8.533-5.973,14.507-14.507,17.92-24.747l2.56-6.827l6.827,0.853c12.8,1.707,28.16,3.413,44.373,3.413
		c40.96,0,65.707-6.827,69.12-10.24c0,0-0.853,0.853-0.853,2.56h17.067v34.133C502.613,488.569,496.64,507.342,417.28,507.342z
		 M366.933,486.009c13.653,2.56,30.72,4.267,50.347,4.267c38.4,0,63.147-5.973,68.267-9.387v-16.213
		c-11.947,4.267-33.28,8.533-68.267,8.533c-14.507,0-28.16-0.853-40.107-2.56C374.613,476.622,371.2,481.742,366.933,486.009z
		 M485.547,448.462L485.547,448.462L485.547,448.462z"/>
	<path style="fill:#FFFFFF;" d="M417.28,396.409c-42.667,0-76.8-7.68-76.8-16.213v8.533c15.36,7.68,27.307,21.333,32.427,39.253
		c12.8,1.707,28.16,3.413,44.373,3.413c42.667,0,76.8-7.68,76.8-16.213v-34.133C494.08,388.729,459.947,396.409,417.28,396.409
		L417.28,396.409z"/>
	<path style="fill:#0096E6;" d="M417.28,439.076c-16.213,0-32.427-0.853-46.08-3.413l-5.12-0.853l-1.707-5.12
		c-3.413-14.507-13.653-26.453-27.307-33.28l-5.12-2.56v-13.653h17.067c0-1.707-0.853-2.56-0.853-2.56
		c3.413,3.413,28.16,10.24,69.12,10.24s65.707-6.827,69.12-10.24c0,0-0.853,0.853-0.853,2.56h17.067v34.133
		C502.613,420.302,496.64,439.076,417.28,439.076z M378.88,419.449c11.093,1.707,24.747,2.56,38.4,2.56
		c39.253,0,63.147-5.973,68.267-9.387v-16.213c-11.947,4.267-33.28,8.533-68.267,8.533c-20.48,0-35.84-0.853-47.787-3.413
		C373.76,407.502,377.173,413.476,378.88,419.449z"/>
	<path style="fill:#FFFFFF;" d="M417.28,430.542c-17.067,0-32.427-0.853-44.373-3.413c0.853,5.12,1.707,10.24,1.707,15.36
		c0,6.827-0.853,12.8-3.413,18.773c12.8,1.707,28.16,3.413,46.08,3.413c42.667,0,76.8-7.68,76.8-16.213v-34.133
		C494.08,422.862,459.947,430.542,417.28,430.542L417.28,430.542z"/>
	<path style="fill:#0096E6;" d="M417.28,473.209c-17.067,0-33.28-0.853-46.933-3.413l-10.24-1.707l3.413-9.387
		c1.707-5.12,2.56-11.093,2.56-16.213c0-4.267-0.853-8.533-1.707-12.8l-3.413-12.8l12.8,1.707c12.8,1.707,28.16,2.56,43.52,2.56
		c41.813,0,65.707-6.827,69.12-10.24c0,0-0.853,0.853-0.853,2.56h17.067v34.133C502.613,454.436,496.64,473.209,417.28,473.209z
		 M382.293,454.436c11.093,0.853,23.04,1.707,34.987,1.707c38.4,0,63.147-5.973,68.267-9.387v-16.213
		c-11.947,4.267-33.28,8.533-68.267,8.533c-11.947,0-23.893-0.853-34.133-1.707c0,1.707,0,3.413,0,5.12
		C383.147,446.756,383.147,450.169,382.293,454.436z"/>
	<path style="fill:#FFFFFF;" d="M256,433.102c3.413-23.893,23.04-44.373,46.933-49.493c13.653-2.56,26.453-0.853,37.547,4.267v-76.8
		c0-6.827,22.187-19.627,52.907-24.747c-11.093-23.04-27.307-44.373-48.64-60.587l-61.44-41.813
		c-11.093-8.533-25.6-15.36-39.253-15.36h-66.56c-14.507,0-29.013,5.12-40.107,13.653l-59.733,43.52
		c-58.88,46.933-79.36,128.853-45.227,195.413c14.507,28.16,34.133,48.64,57.173,50.347c1.707,0,4.267,0,6.827,0H263.68
		C256.853,462.116,253.44,447.609,256,433.102L256,433.102z"/>
	<path style="fill:#0096E6;" d="M279.04,481.742H95.573c-2.56,0-4.267,0-6.827,0c-24.747-1.707-46.933-21.333-64-55.467
		c-35.84-69.973-15.36-156.16,46.933-205.653l60.587-44.373c12.8-10.24,29.013-15.36,45.227-15.36h66.56
		c18.773,0,34.987,9.387,44.373,17.067l61.44,41.813c22.187,17.067,39.253,39.253,51.2,64l5.12,10.24l-11.093,1.707
		c-26.453,4.267-42.667,13.653-46.08,17.067v88.747l-11.947-5.973c-10.24-5.12-21.333-5.973-32.427-4.267
		c-20.48,4.267-36.693,21.333-40.107,41.813c-1.707,11.947,0.853,23.893,6.827,34.133L279.04,481.742z M177.493,177.956
		c-12.8,0-24.747,4.267-34.987,11.947L81.92,234.276C25.6,278.649,7.68,356.302,39.253,419.449
		c14.507,28.16,31.573,44.373,50.347,45.227c1.707,0,4.267,0,5.973,0h154.453c-3.413-10.24-4.267-21.333-2.56-32.427l0,0
		c4.267-28.16,25.6-50.347,53.76-56.32c10.24-2.56,21.333-1.707,30.72,0.853v-64.853c0-13.653,23.893-24.747,48.64-30.72
		c-10.24-18.773-23.893-34.987-40.96-47.787l-61.44-41.813c-8.533-6.827-21.333-13.653-34.987-13.653L177.493,177.956
		L177.493,177.956z"/>
	<path style="fill:#D0E8F9;" d="M374.613,442.489c0,33.28-26.453,59.733-59.733,59.733s-59.733-26.453-59.733-59.733
		s26.453-59.733,59.733-59.733S374.613,409.209,374.613,442.489L374.613,442.489z"/>
	<g>
		<path style="fill:#0096E6;" d="M314.88,510.756c-37.547,0-68.267-30.72-68.267-68.267s30.72-68.267,68.267-68.267
			s68.267,30.72,68.267,68.267S352.427,510.756,314.88,510.756z M314.88,391.289c-28.16,0-51.2,23.04-51.2,51.2
			c0,28.16,23.04,51.2,51.2,51.2c28.16,0,51.2-23.04,51.2-51.2C366.08,414.329,343.04,391.289,314.88,391.289z"/>
		<path style="fill:#0096E6;" d="M75.946,357.156c-5.12,0-8.533-3.413-8.533-8.533c0-58.88,64.853-128,119.467-128
			c5.12,0,8.533,3.413,8.533,8.533c0,5.12-3.413,8.533-8.533,8.533c-45.227,0-102.4,62.293-102.4,110.933
			C84.48,353.742,81.067,357.156,75.946,357.156z"/>
	</g>
</g>
<g>
</g>
<g>
</g>
<g>
</g>
<g>
</g>
<g>
</g>
<g>
</g>
<g>
</g>
<g>
</g>
<g>
</g>
<g>
</g>
<g>
</g>
<g>
</g>
<g>
</g>
<g>
</g>
<g>
</g>
</svg>
