<svg xmlns="http://www.w3.org/2000/svg" viewBox="0 0 60 60" width="512" height="512"><style>.a{fill:#FFF;}</style><path d="M45.6 29.2l-22-15c-0.3-0.2-0.7-0.2-1-0.1C22.2 14.3 22 14.6 22 15v30c0 0.4 0.2 0.7 0.5 0.9C22.7 46 22.8 46 23 46c0.2 0 0.4-0.1 0.6-0.2l22-15C45.8 30.6 46 30.3 46 30S45.8 29.4 45.6 29.2zM24 43.1V16.9L43.2 30 24 43.1z" class="a"/><path d="M30 0C13.5 0 0 13.5 0 30s13.5 30 30 30 30-13.5 30-30S46.5 0 30 0zM30 58C14.6 58 2 45.4 2 30S14.6 2 30 2s28 12.6 28 28S45.4 58 30 58z" class="a"/></svg>
